<?xml version="1.0" encoding="iso-8859-1"?>
<!-- Generator: Adobe Illustrator 18.1.1, SVG Export Plug-In . SVG Version: 6.00 Build 0)  -->
<svg xmlns="http://www.w3.org/2000/svg" xmlns:xlink="http://www.w3.org/1999/xlink" version="1.1" id="Capa_1" x="0px" y="0px" viewBox="0 0 18.797 18.797" style="enable-background:new 0 0 18.797 18.797;" xml:space="preserve" width="512px" height="512px">
<g>
	<path d="M18.016,8.151c0.055-0.185-0.029-0.382-0.2-0.471l-0.214-0.112c-0.044-0.023-0.091-0.034-0.139-0.04   c0.038-0.15,0.065-0.305,0.065-0.467c0-0.938-0.688-1.371-1.586-1.446c0.211-0.953,0.86-2.538,2.855-3.445l-0.159-0.351   c-2.162,0.982-2.854,2.755-3.078,3.785c-0.949,0.023-1.708,0.416-1.777,1.324c-0.138-0.157-0.293-0.329-0.478-0.518   c-0.083-0.086-0.201-0.13-0.32-0.121c-0.118,0.009-0.227,0.071-0.296,0.168c-0.126,0.177-0.307,0.361-0.529,0.548   c-0.961-0.823-1.774-1.382-2.167-1.417C9.44,5.539,8.528,6.148,7.508,7.055c0.24,0.61,0.638,1.295,1.297,1.718   c0.778,0.5,1.792,0.543,3.013,0.132c0.689-0.231,1.332-0.371,1.92-0.441c-0.326-0.322-0.651-0.63-0.967-0.918   c0.093-0.083,0.182-0.165,0.264-0.248c0.613,0.682,0.787,1.056,0.787,1.166c0,0.199-0.039,0.399-0.117,0.593   c-0.011,0.029-0.018,0.058-0.021,0.087c-0.482,0.064-1.028,0.186-1.652,0.395c-1.426,0.48-2.631,0.411-3.589-0.206   c-0.716-0.46-1.17-1.15-1.458-1.796c-0.188,0.179-0.379,0.368-0.57,0.559C6.294,8.042,6.183,7.979,6.057,7.908   C5.857,7.796,5.804,7.7,5.811,7.64C5.876,7.449,5.79,7.239,5.609,7.148C5.603,7.145,5.595,7.145,5.588,7.142   c0-0.027,0.008-0.052,0.008-0.081c0-1.008-0.795-1.434-1.792-1.458c-0.223-1.03-0.916-2.802-3.077-3.785l-0.16,0.351   C2.56,3.076,3.209,4.661,3.42,5.614C2.522,5.69,1.834,6.122,1.834,7.06c0,0.296,0.075,0.572,0.196,0.821   C1.549,7.718,1.066,7.546,0.585,7.357C0.48,7.316,0.364,7.319,0.262,7.369C0.161,7.418,0.085,7.506,0.053,7.614   C-0.03,7.886-0.066,8.481,0.338,8.991c1.068,1.306,2.217,2.107,3.127,2.699c-0.951-0.27-1.912-0.595-2.879-0.976   c-0.105-0.042-0.221-0.038-0.323,0.012c-0.101,0.049-0.177,0.139-0.209,0.244c-0.083,0.273-0.119,0.868,0.285,1.378   c1.194,1.458,2.487,2.289,3.437,2.897c1.607,0.992,3.417,1.583,5.232,1.707c0.248,0.019,0.499,0.027,0.748,0.027   c1.772,0,3.513-0.461,4.9-1.302c1.67-1.004,2.865-2.485,3.361-4.169c0.055-0.186-0.029-0.384-0.2-0.473l-0.214-0.112   c-0.122-0.064-0.271-0.06-0.391,0.01c-0.294,0.172-0.848,0.464-1.65,0.759C16.757,10.74,17.615,9.512,18.016,8.151z M14.619,8.632   c0.005,0.003,0.011,0.005,0.015,0.008c-0.005,0.001-0.01,0.002-0.015,0.004C14.619,8.641,14.619,8.635,14.619,8.632z M0.965,8.487   C0.923,8.435,0.893,8.381,0.869,8.328c1.192,0.443,2.384,0.808,3.554,1.085C4.619,9.46,4.819,9.354,4.892,9.167   c0.043-0.113,0.195-0.388,0.447-0.788c0.085,0.079,0.191,0.156,0.323,0.23c0.052,0.029,0.11,0.056,0.169,0.083   c-0.705,0.742-1.399,1.53-2.011,2.265c0.137-0.111,0.297-0.215,0.508-0.305c2.242-0.96,3.217-0.228,4.077,0.419   c0.371,0.278,0.722,0.543,1.172,0.685l-0.202,0.639c-0.558-0.18-0.971-0.489-1.372-0.791c-0.818-0.615-1.525-1.147-3.412-0.338   c-0.06,0.025-0.104,0.05-0.151,0.075c-0.079-0.046-0.159-0.088-0.236-0.135C3.304,10.63,2.073,9.841,0.965,8.487z M16.994,11.959   c-0.532,1.209-1.49,2.268-2.757,3.027c-1.443,0.875-3.331,1.298-5.174,1.163c-1.688-0.115-3.369-0.666-4.86-1.585   c-0.899-0.577-2.13-1.368-3.239-2.721c-0.042-0.054-0.072-0.105-0.096-0.159c2.051,0.763,4.071,1.283,6.016,1.55   c0.178,0.022,3.57,0.466,5.415,0.059C14.144,12.884,16.086,12.401,16.994,11.959z M14.701,9.458   c0.982-0.274,1.751-0.59,2.292-0.853c-0.308,0.7-0.763,1.345-1.334,1.917C15.354,10.166,15.03,9.81,14.701,9.458z" fill="#FFFFFF"/>
</g>
<g>
</g>
<g>
</g>
<g>
</g>
<g>
</g>
<g>
</g>
<g>
</g>
<g>
</g>
<g>
</g>
<g>
</g>
<g>
</g>
<g>
</g>
<g>
</g>
<g>
</g>
<g>
</g>
<g>
</g>
</svg>
