<?xml version="1.0" encoding="iso-8859-1"?>
<!-- Generator: Adobe Illustrator 17.1.0, SVG Export Plug-In . SVG Version: 6.00 Build 0)  -->
<!DOCTYPE svg PUBLIC "-//W3C//DTD SVG 1.1//EN" "http://www.w3.org/Graphics/SVG/1.1/DTD/svg11.dtd">
<svg xmlns="http://www.w3.org/2000/svg" xmlns:xlink="http://www.w3.org/1999/xlink" version="1.1" id="Capa_1" x="0px" y="0px" viewBox="0 0 450.253 450.253" style="enable-background:new 0 0 450.253 450.253;" xml:space="preserve" width="512px" height="512px">
<g>
	<path d="M328.009,158.28c2.56-4.776,4.016-10.227,4.016-16.015c0-14.02-8.526-26.086-20.667-31.285   c0.442-2.199,0.667-4.454,0.667-6.74c0-18.755-15.258-34.013-34.013-34.013h-17.22h-22.384l13.413-46.619l52.574,22.259   c5.087,2.151,10.955-0.225,13.107-5.311c2.153-5.086-0.225-10.954-5.311-13.107L249.231,0.792c-2.634-1.116-5.621-1.05-8.204,0.184   c-2.582,1.231-4.514,3.511-5.305,6.261l-18.124,62.991H172.24c-18.755,0-34.013,15.258-34.013,34.013   c0,2.286,0.225,4.541,0.667,6.74c-12.141,5.199-20.667,17.265-20.667,31.285c0,5.787,1.456,11.239,4.016,16.015   c-0.456,0.341-0.891,0.714-1.288,1.134c-1.89,2.001-2.87,4.692-2.712,7.44c0.142,2.45,3.621,60.685,17.476,119.984   c14.278,61.11,34.19,100.198,59.407,116.815v26.6h-35.639c-5.522,0-10,4.477-10,10c0,5.522,4.478,10,10,10h131.277   c5.522,0,10-4.478,10-10c0-5.523-4.478-10-10-10h-35.639v-26.6c25.217-16.617,45.129-55.704,59.407-116.815   c13.854-59.3,17.334-117.534,17.476-119.984c0.158-2.748-0.822-5.439-2.712-7.44C328.901,158.994,328.465,158.621,328.009,158.28z    M152.24,128.253h0.506h107.239c5.522,0,10-4.478,10-10c0-5.522-4.478-10-10-10H158.819c-0.386-1.29-0.592-2.636-0.592-4.013   c0-7.727,6.286-14.013,14.013-14.013h52.85c0.014,0,0.028,0.003,0.042,0.003c0.024,0,0.048-0.003,0.071-0.003h35.591h17.22   c7.727,0,14.013,6.286,14.013,14.013c0,2.952-0.91,5.776-2.633,8.168c-2.193,3.046-2.497,7.063-0.786,10.403   c1.711,3.34,5.147,5.441,8.9,5.441h0.506c7.727,0,14.013,6.286,14.013,14.013c0,7.727-6.286,14.013-14.013,14.013H152.24   c-7.727,0-14.013-6.286-14.013-14.013C138.227,134.539,144.513,128.253,152.24,128.253z M235.126,430.253h-20V411.91   c3.262,0.62,6.595,0.938,10,0.938c3.405,0,6.737-0.318,10-0.938V430.253z M295.058,282.288   c-7.795,33.361-17.315,59.787-28.299,78.543c-12.44,21.245-26.447,32.018-41.633,32.018c-15.167,0-29.159-10.746-41.588-31.94   c-10.978-18.72-20.497-45.099-28.293-78.404c-10.087-43.09-14.594-86.709-16.241-106.226h172.245   C309.609,195.75,305.12,239.222,295.058,282.288z" fill="#FFFFFF"/>
	<path d="M196.718,261.741c-3.393-15.973-6.35-33.394-8.789-51.778c-0.726-5.475-5.753-9.334-11.229-8.598   c-5.475,0.727-9.324,5.754-8.598,11.229c2.508,18.894,5.553,36.827,9.051,53.302c2.855,13.443,6.008,25.912,9.369,37.059   c1.305,4.325,5.274,7.116,9.57,7.116c0.956,0,1.929-0.139,2.891-0.429c5.288-1.595,8.282-7.174,6.688-12.461   C202.47,286.564,199.458,274.641,196.718,261.741z" fill="#FFFFFF"/>
</g>
<g>
</g>
<g>
</g>
<g>
</g>
<g>
</g>
<g>
</g>
<g>
</g>
<g>
</g>
<g>
</g>
<g>
</g>
<g>
</g>
<g>
</g>
<g>
</g>
<g>
</g>
<g>
</g>
<g>
</g>
</svg>
