<?xml version="1.0" encoding="iso-8859-1"?>
<!-- Generator: Adobe Illustrator 19.0.0, SVG Export Plug-In . SVG Version: 6.00 Build 0)  -->
<svg xmlns="http://www.w3.org/2000/svg" xmlns:xlink="http://www.w3.org/1999/xlink" version="1.1" id="Layer_1" x="0px" y="0px" viewBox="0 0 511.993 511.993" style="enable-background:new 0 0 511.993 511.993;" xml:space="preserve" width="512px" height="512px">
<g>
	<g>
		<path d="M460.279,213.044c-40.25-69.078-87.093-118.453-110.733-118.453c-2.5,0-4.734,0.547-6.672,1.68l-73.742,42.945    c-17.445,10.164-5.586,64.125,26.148,127.398c-28.359-11.946-78.343-19.876-135.281-19.876C71.633,246.739,0,265.841,0,289.403    v85.344c0,23.561,71.633,42.654,159.999,42.654c88.367,0,160-19.094,160-42.654v-63.766c38.5,62.703,81.296,106.42,103.546,106.42    c2.484,0,4.719-0.547,6.656-1.688l73.733-42.936C524.294,360.903,504.747,289.403,460.279,213.044z M31.743,286.809    c7.961-3.5,18.711-6.781,31.078-9.5c27.085-5.953,61.601-9.234,97.179-9.234s70.094,3.281,97.179,9.234    c12.367,2.719,23.117,6,31.07,9.5c2.125,0.938,3.891,1.812,5.344,2.594c-1.453,0.781-3.219,1.656-5.344,2.594    c-7.953,3.5-18.703,6.781-31.07,9.5c-27.085,5.969-61.601,9.25-97.179,9.25s-70.093-3.281-97.179-9.25    c-12.367-2.719-23.117-6-31.078-9.5c-2.125-0.938-3.883-1.812-5.328-2.594C27.86,288.622,29.618,287.747,31.743,286.809z     M298.671,371.435c-1.469,1.218-4.531,3.312-10.422,5.906c-7.953,3.484-18.703,6.766-31.07,9.498    c-27.085,5.938-61.601,9.234-97.179,9.234s-70.093-3.297-97.179-9.234c-12.367-2.732-23.117-6.014-31.078-9.498    c-5.875-2.594-8.945-4.688-10.414-5.906v-16.016c20.086,8.422,61.085,19.328,138.671,19.328s118.578-10.906,138.671-19.328    V371.435z M298.671,310.747v21c-9.328,5.391-45.258,21.656-138.671,21.656c-31.953,0-77.453-2.031-112.796-11.781    c-14.031-3.844-22.047-7.734-25.875-9.938v-20.938h0.078c27.664,12.75,79.367,21.328,138.593,21.328    c59.219,0,110.921-8.578,138.593-21.328L298.671,310.747L298.671,310.747z M422.31,395.637c-1.766-0.672-5.141-2.266-10.328-6.047    c-7.016-5.107-15.266-12.748-23.844-22.061c-18.78-20.406-38.999-48.562-56.905-79.312    c-17.906-30.751-32.438-62.227-40.922-88.625c-3.875-12.062-6.453-23-7.438-31.633c-0.734-6.383-0.453-10.094-0.156-11.969    l13.859-8.062c2.828,21.586,14.047,62.5,53.094,129.539c39.046,67.047,69.108,96.984,86.483,110.092L422.31,395.637z     M456.639,375.653c-3.484-2.031-10.125-6.469-19.469-15.344c-26.906-25.531-52.405-64.969-69.062-93.578    c-46.594-79.969-50.891-119.633-51.016-130.758l18.094-10.531l0.031,0.062c2.906,30.32,21.516,79.32,51.327,130.491    c29.797,51.173,63.234,91.532,88.187,109.001l0.031,0.094L456.639,375.653z M485.716,346.653    c-7.016-5.125-15.266-12.75-23.843-22.062c-18.781-20.406-38.984-48.594-56.906-79.329    c-17.906-30.749-32.437-62.218-40.921-88.624c-3.875-12.062-6.438-23-7.438-31.633c-0.266-2.305-0.391-4.266-0.438-5.914    c1.407,0.851,3.048,1.937,4.923,3.304c7.031,5.117,15.266,12.75,23.859,22.07c18.78,20.406,38.983,48.57,56.89,79.32    c17.906,30.741,32.437,62.211,40.921,88.617c3.875,12.062,6.453,23,7.438,31.625c0.266,2.312,0.391,4.281,0.453,5.938    C489.232,349.09,487.592,348.027,485.716,346.653z" fill="#FFFFFF"/>
	</g>
</g>
<g>
</g>
<g>
</g>
<g>
</g>
<g>
</g>
<g>
</g>
<g>
</g>
<g>
</g>
<g>
</g>
<g>
</g>
<g>
</g>
<g>
</g>
<g>
</g>
<g>
</g>
<g>
</g>
<g>
</g>
</svg>
