<?xml version="1.0" encoding="iso-8859-1"?>
<!-- Generator: Adobe Illustrator 19.0.0, SVG Export Plug-In . SVG Version: 6.00 Build 0)  -->
<svg xmlns="http://www.w3.org/2000/svg" xmlns:xlink="http://www.w3.org/1999/xlink" version="1.1" id="Layer_1" x="0px" y="0px" viewBox="0 0 512 512" style="enable-background:new 0 0 512 512;" xml:space="preserve" width="512px" height="512px">
<g>
	<g>
		<path d="M444.929,0H67.071C30.681,0,1.075,29.606,1.075,65.996v380.007C1.075,482.394,30.681,512,67.071,512H444.93    c36.391,0,65.996-29.606,65.995-65.995V65.996C510.925,29.606,481.319,0,444.929,0z M495.717,446.004    c0,28.005-22.783,50.788-50.788,50.788H67.071c-28.005,0-50.788-22.784-50.788-50.787V65.996    c0-28.005,22.784-50.788,50.788-50.788H444.93c28.005,0,50.788,22.783,50.787,50.788V446.004z" fill="#FFFFFF"/>
	</g>
</g>
<g>
	<g>
		<path d="M140.856,36.495H66.428c-15.912,0-28.857,12.946-28.857,28.859v74.427c0,15.913,12.945,28.859,28.857,28.859h74.429    c15.911,0,28.857-12.946,28.857-28.859V65.354C169.713,49.441,156.768,36.495,140.856,36.495z M154.505,139.78    c0,7.527-6.123,13.651-13.649,13.651H66.428c-7.526,0-13.649-6.124-13.649-13.651V65.354c0-7.527,6.123-13.651,13.649-13.651    h74.429c7.526,0,13.649,6.124,13.649,13.651V139.78z" fill="#FFFFFF"/>
	</g>
</g>
<g>
	<g>
		<path d="M293.214,36.495h-74.429c-15.911,0-28.857,12.946-28.857,28.859v74.427c0,15.913,12.945,28.859,28.857,28.859h74.429    c15.911,0,28.858-12.946,28.857-28.859V65.354C322.071,49.441,309.126,36.495,293.214,36.495z M306.863,139.78    c0,7.527-6.123,13.651-13.649,13.651h-74.429c-7.526,0-13.649-6.124-13.649-13.651V65.354c0-7.527,6.123-13.651,13.649-13.651    h74.429c7.526,0,13.649,6.124,13.649,13.651V139.78z" fill="#FFFFFF"/>
	</g>
</g>
<g>
	<g>
		<path d="M445.572,36.495h-74.427c-15.911,0-28.858,12.946-28.858,28.859v27.074h15.208V65.354c0-7.527,6.123-13.651,13.65-13.651    h74.427c7.526,0,13.649,6.124,13.649,13.651v74.427c0,7.527-6.123,13.651-13.649,13.651h-74.427    c-7.526,0-13.65-6.124-13.65-13.651v-27.074h-15.208v27.074c0,15.913,12.945,28.859,28.858,28.859h74.427    c15.913,0,28.857-12.946,28.857-28.859V65.354C474.429,49.441,461.484,36.495,445.572,36.495z" fill="#FFFFFF"/>
	</g>
</g>
<g>
	<g>
		<path d="M140.856,189.928H66.428c-15.912,0-28.857,12.945-28.857,28.858v74.427c0,15.912,12.945,28.859,28.857,28.859h74.429    c15.911,0,28.857-12.947,28.857-28.859v-74.427C169.713,202.873,156.768,189.928,140.856,189.928z M154.505,293.211    c0,7.527-6.123,13.651-13.649,13.651H66.428c-7.526,0-13.649-6.124-13.649-13.651v-74.427c0-7.527,6.123-13.65,13.649-13.65    h74.429c7.526,0,13.649,6.123,13.649,13.65V293.211z" fill="#FFFFFF"/>
	</g>
</g>
<g>
	<g>
		<path d="M293.214,189.928h-74.429c-15.911,0-28.857,12.945-28.857,28.858v74.427c0,15.912,12.945,28.859,28.857,28.859h74.429    c15.911,0,28.858-12.947,28.857-28.859v-74.427C322.071,202.873,309.126,189.928,293.214,189.928z M306.863,293.211    c0,7.527-6.123,13.651-13.649,13.651h-74.429c-7.526,0-13.649-6.124-13.649-13.651v-74.427c0-7.527,6.123-13.65,13.649-13.65    h74.429c7.526,0,13.649,6.123,13.649,13.65V293.211z" fill="#FFFFFF"/>
	</g>
</g>
<g>
	<g>
		<path d="M445.572,189.928h-74.427c-15.911,0-28.858,12.945-28.858,28.858v74.427c0,15.912,12.945,28.859,28.858,28.859h74.427    c15.913,0,28.857-12.947,28.857-28.859v-74.427C474.429,202.873,461.484,189.928,445.572,189.928z M459.221,293.211    c0,7.527-6.123,13.651-13.649,13.651h-74.427c-7.526,0-13.65-6.124-13.65-13.651v-74.427c0-7.527,6.123-13.65,13.65-13.65h74.427    c7.526,0,13.649,6.123,13.649,13.65V293.211z" fill="#FFFFFF"/>
	</g>
</g>
<g>
	<g>
		<path d="M140.856,343.359H66.428c-15.912,0-28.857,12.946-28.857,28.858v74.427c0,15.912,12.945,28.858,28.857,28.858h74.429    c15.911,0,28.857-12.946,28.857-28.858v-74.427C169.713,356.305,156.768,343.359,140.856,343.359z M154.505,446.643    c0,7.526-6.123,13.65-13.649,13.65H66.428c-7.526,0-13.649-6.124-13.649-13.65v-74.427c0-7.526,6.123-13.65,13.649-13.65h74.429    c7.526,0,13.649,6.124,13.649,13.65V446.643z" fill="#FFFFFF"/>
	</g>
</g>
<g>
	<g>
		<path d="M293.214,343.359h-74.429c-15.911,0-28.857,12.946-28.857,28.858v74.427c0,15.912,12.945,28.858,28.857,28.858h74.429    c15.911,0,28.858-12.946,28.857-28.858v-74.427C322.071,356.305,309.126,343.359,293.214,343.359z M306.863,446.643    c0,7.526-6.123,13.65-13.649,13.65h-74.429c-7.526,0-13.649-6.124-13.649-13.65v-74.427c0-7.526,6.123-13.65,13.649-13.65h74.429    c7.526,0,13.649,6.124,13.649,13.65V446.643z" fill="#FFFFFF"/>
	</g>
</g>
<g>
	<g>
		<path d="M445.572,343.359h-74.427c-15.911,0-28.858,12.946-28.858,28.858v74.427c0,15.912,12.945,28.858,28.858,28.858h74.427    c15.913,0,28.857-12.946,28.857-28.858v-74.427C474.429,356.305,461.484,343.359,445.572,343.359z M459.221,446.643    c0,7.526-6.123,13.65-13.649,13.65h-74.427c-7.526,0-13.65-6.124-13.65-13.65v-74.427c0-7.526,6.123-13.65,13.65-13.65h74.427    c7.526,0,13.649,6.124,13.649,13.65V446.643z" fill="#FFFFFF"/>
	</g>
</g>
<g>
</g>
<g>
</g>
<g>
</g>
<g>
</g>
<g>
</g>
<g>
</g>
<g>
</g>
<g>
</g>
<g>
</g>
<g>
</g>
<g>
</g>
<g>
</g>
<g>
</g>
<g>
</g>
<g>
</g>
</svg>
