<?xml version="1.0" encoding="iso-8859-1"?>
<!-- Generator: Adobe Illustrator 19.0.0, SVG Export Plug-In . SVG Version: 6.00 Build 0)  -->
<svg xmlns="http://www.w3.org/2000/svg" xmlns:xlink="http://www.w3.org/1999/xlink" version="1.1" id="Layer_1" x="0px" y="0px" viewBox="0 0 512 512" style="enable-background:new 0 0 512 512;" xml:space="preserve" width="512px" height="512px">
<g>
	<g>
		<path d="M446.013,495.104l-12.373-17.088c-24.661-33.984-51.627-71.189-75.563-115.349h25.941c5.888,0,10.667-4.779,10.667-10.667    c0-5.888-4.779-10.667-10.667-10.667h-37.013c-20.885-42.411-38.4-91.349-48.811-149.333h11.136    c5.888,0,10.667-4.779,10.667-10.667s-4.757-10.667-10.645-10.667H294.76c-4.224-29.632-6.741-61.397-6.741-96    c0-1.6-0.405-3.093-1.045-4.459c-0.043-0.085-0.021-0.213-0.064-0.299l-20.224-40.448V10.667C266.685,4.779,261.907,0,256.019,0    s-10.667,4.779-10.667,10.667v18.837l-20.203,40.405c-0.043,0.064-0.021,0.149-0.043,0.213c-0.661,1.387-1.109,2.901-1.109,4.544    c0,34.603-2.496,66.368-6.741,96h-14.571c-5.888,0-10.667,4.779-10.667,10.667S196.797,192,202.685,192H213.8    c-10.411,57.984-27.925,106.923-48.811,149.333h-26.304c-5.888,0-10.667,4.779-10.667,10.667c0,5.888,4.779,10.667,10.667,10.667    h15.253c-23.957,44.16-50.901,81.365-75.563,115.349l-12.373,17.088c-2.347,3.264-2.667,7.552-0.832,11.115    c1.835,3.563,5.483,5.781,9.493,5.781h85.909c3.051,0,5.931-1.301,7.957-3.541c2.027-2.283,3.008-5.269,2.667-8.299    c-0.341-3.115-0.512-6.293-0.512-9.493c0-47.061,38.272-85.333,85.333-85.333s85.333,38.272,85.333,85.333    c0,3.2-0.171,6.379-0.533,9.493c-0.32,3.029,0.64,6.037,2.667,8.299c2.048,2.24,4.928,3.541,7.957,3.541h85.909    c3.989,0,7.68-2.219,9.493-5.781C448.659,502.656,448.339,498.347,446.013,495.104z M245.053,85.333h21.888    c0.427,30.421,2.603,58.773,6.229,85.333h-34.368C242.45,144.107,244.648,115.733,245.053,85.333z M235.581,192h40.853    c9.941,57.771,26.731,106.667,46.891,149.333h-27.627l-18.901-56.704c-1.451-4.352-5.525-7.296-10.112-7.296h-21.333    c-4.587,0-8.661,2.944-10.112,7.296l-18.901,56.704h-27.648C208.829,298.667,225.64,249.771,235.581,192z M273.213,341.333    h-34.389l14.208-42.667h5.952L273.213,341.333z M362.685,490.667c0-58.816-47.851-106.667-106.667-106.667    c-58.816,0-106.667,47.851-106.667,106.667H95.571l0.064-0.128c27.029-37.269,56.704-78.357,82.475-127.872h155.776    c25.792,49.493,55.445,90.603,82.475,127.872l0.107,0.128H362.685z" fill="#FFFFFF"/>
	</g>
</g>
<g>
</g>
<g>
</g>
<g>
</g>
<g>
</g>
<g>
</g>
<g>
</g>
<g>
</g>
<g>
</g>
<g>
</g>
<g>
</g>
<g>
</g>
<g>
</g>
<g>
</g>
<g>
</g>
<g>
</g>
</svg>
