<?xml version="1.0" encoding="iso-8859-1"?>
<svg xmlns="http://www.w3.org/2000/svg" xmlns:xlink="http://www.w3.org/1999/xlink" version="1.1" viewBox="0 0 80.591 80.591" enable-background="new 0 0 80.591 80.591" width="512px" height="512px">
  <g>
    <path d="m30.828,20.484l-.921-1.852c-5.806,1.453-9.211,3.938-9.211,5.854 0,2.878 7.66,7.059 19.664,7.059 12.003,0 19.664-4.181 19.664-7.059 0-2-3.702-4.624-9.982-6.043l-.926,1.86c5.693,1.219 8.72,3.366 8.911,4.146-0.271,1.188-6.308,5.096-17.667,5.096s-17.396-3.908-17.667-5.021c0.181-0.792 2.946-2.794 8.135-4.04z" fill="#FFFFFF"/>
    <path d="m46.699,17.843c-1.942-0.264-4.061-0.415-6.339-0.415-2.601,0-4.983,0.205-7.143,0.542l.938,1.885c1.854-0.263 3.916-0.427 6.205-0.427 1.96,0 3.751,0.122 5.392,0.321l.947-1.906z" fill="#FFFFFF"/>
    <path d="m32.345,16.218c2.492-0.429 5.2-0.669 8.015-0.669 2.516,0 4.946,0.191 7.213,0.537l.915-1.838c-0.013-0.019-0.022-0.039-0.034-0.059-2.514-0.415-5.236-0.641-8.094-0.641-3.185,0-6.201,0.282-8.948,0.793l.933,1.877z" fill="#FFFFFF"/>
    <path d="m67.441,42.155c-0.459-6.939-1.687-11.99-3.855-15.832 0.21-0.607 0.316-1.222 0.316-1.836 0-3.96-4.312-7.363-10.919-9.279-0.467,0.287-1.005,0.462-1.575,0.49l-.515,1.035c6.512,1.559 11.009,4.484 11.009,7.754 0,0.499-0.113,1.009-0.338,1.515-0.132,0.297-0.111,0.639 0.056,0.918 2.155,3.611 3.371,8.494 3.825,15.368 0.363,5.486-0.94,9.857-3.873,12.99-4.017,4.29-11.186,6.466-21.308,6.466-9.939,0-16.695-1.947-20.653-5.952-3.114-3.151-4.594-7.587-4.523-13.559 0.079-6.617 1.352-11.688 3.894-15.501 0.181-0.271 0.218-0.613 0.1-0.917-0.177-0.456-0.264-0.891-0.264-1.328 0-3.14 4.146-5.963 10.24-7.562l-.61-1.227c-0.453-0.023-0.887-0.134-1.28-0.322-6.285,1.943-10.35,5.266-10.35,9.111 0,0.515 0.077,1.035 0.229,1.553-2.582,4.09-3.879,9.387-3.959,16.17-0.077,6.443 1.64,11.485 5.1,14.988 2.297,2.324 5.401,4.012 9.355,5.093-0.086,0.1-0.155,0.217-0.198,0.351l-3.042,9.469c-0.716,0.566-1.143,1.246-1.143,2.066 0,3.237 8.52,6.414 17.201,6.414 8.68,0 17.199-3.177 17.199-6.414 0-0.974-0.532-1.8-1.579-2.479l-2.91-9.057c-0.044-0.137-0.116-0.255-0.205-0.355 4.342-1.175 7.748-3.057 10.167-5.642 3.325-3.552 4.809-8.427 4.408-14.489zm-41.917,32.587c0.033-0.059 0.071-0.113 0.092-0.18l.385-1.198c1.107-0.609 3.403-1.326 7.433-1.714v2.52c0,0.368 0.199,0.69 0.496,0.863 1.144,1.343 4.039,1.831 6.322,1.831 2.284,0 5.178-0.488 6.322-1.831 0.296-0.174 0.495-0.495 0.495-0.863v-2.573c3.876,0.305 6.067,0.901 7.25,1.467l.481,1.499c0.043,0.135 0.119,0.246 0.206,0.346-1.682,1.417-7.143,3.683-14.645,3.683-7.806-0.001-13.407-2.454-14.837-3.85zm14.727-.475c1.72,0 3.503-0.268 4.817-0.826v0.275c-0.225,0.352-1.868,1.148-4.817,1.148-2.947,0-4.591-0.796-4.818-1.148v-0.276c1.314,0.558 3.098,0.827 4.818,0.827zm-.485-4.244c0-0.028 0.006-0.191 0.123-0.608v-0.001c0.08-0.286 0.188-0.606 0.306-0.928 0.117,0.318 0.224,0.634 0.304,0.919 0,0.001 0.001,0.001 0.001,0.001 0.119,0.423 0.125,0.588 0.125,0.617 0,0.625-0.321,0.953-0.432,0.953-0.11,0-0.427-0.328-0.427-0.953zm5.235,1.133c0.007,0.008 0.013,0.017 0.021,0.025-0.28,0.297-1.34,0.801-3.153,1 0.009-0.011 0.016-0.023 0.024-0.034 0.046-0.054 0.084-0.114 0.126-0.172 0.057-0.079 0.114-0.156 0.164-0.242 0.038-0.066 0.069-0.138 0.103-0.208 0.043-0.089 0.085-0.177 0.12-0.271 0.028-0.075 0.049-0.154 0.072-0.232 0.029-0.099 0.055-0.197 0.075-0.3 0.016-0.084 0.026-0.169 0.037-0.255 0.007-0.063 0.022-0.122 0.027-0.187 1.399,0.243 2.143,0.647 2.384,0.876zm-9.525,.023c0.211-0.218 0.929-0.625 2.3-0.876 0.004,0.062 0.019,0.118 0.027,0.179 0.01,0.082 0.02,0.162 0.036,0.242 0.021,0.105 0.048,0.207 0.077,0.308 0.022,0.075 0.042,0.149 0.068,0.221 0.037,0.1 0.081,0.192 0.126,0.285 0.031,0.064 0.059,0.13 0.093,0.191 0.054,0.093 0.116,0.178 0.178,0.263 0.037,0.05 0.069,0.104 0.109,0.15 0.007,0.009 0.012,0.019 0.019,0.026-1.743-0.21-2.764-0.7-3.033-0.989zm15.689-7.926l2.374,7.387c-1.836-0.552-4.298-0.922-7.381-1.107-0.916-0.719-2.413-1.143-3.941-1.327-0.435-1.272-1.083-2.661-1.115-2.731-0.165-0.351-0.517-0.575-0.905-0.575-0.388,0-0.741,0.225-0.905,0.575-0.032,0.069-0.687,1.471-1.122,2.747-1.502,0.195-2.97,0.628-3.863,1.348-2.581,0.196-5.36,0.576-7.501,1.292l2.444-7.608c0.059-0.185 0.045-0.368 0.001-0.544 3.17,0.689 6.827,1.035 11.014,1.035 4.081,0 7.717-0.351 10.902-1.042-0.047,0.177-0.062,0.362-0.002,0.55z" fill="#FFFFFF"/>
    <path d="m45.009,22.363l2.023,1.005 4.065-8.169c1.087,0.055 2.156-0.526 2.671-1.562l4.75-9.547c0.694-1.4 0.126-3.097-1.272-3.793-1.398-0.696-3.095-0.126-3.792,1.271l-4.748,9.55c-0.517,1.039-0.334,2.238 0.365,3.076l-4.062,8.169z" fill="#FFFFFF"/>
    <path d="m26.084,13.637c0.514,1.036 1.584,1.617 2.674,1.562l4.062,8.169 2.024-1.005-4.064-8.169c0.701-0.838 0.884-2.037 0.368-3.076l-4.751-9.55c-0.694-1.397-2.392-1.968-3.79-1.271-1.399,0.696-1.969,2.393-1.272,3.793l4.749,9.547z" fill="#FFFFFF"/>
  </g>
</svg>
