<?xml version="1.0" encoding="iso-8859-1"?>
<!-- Generator: Adobe Illustrator 19.0.0, SVG Export Plug-In . SVG Version: 6.00 Build 0)  -->
<svg xmlns="http://www.w3.org/2000/svg" xmlns:xlink="http://www.w3.org/1999/xlink" version="1.1" id="Layer_1" x="0px" y="0px" viewBox="0 0 512 512" style="enable-background:new 0 0 512 512;" xml:space="preserve" width="512px" height="512px">
<g>
	<g>
		<path d="M456.348,100.174c0-32.068-7.353-62.711-21.854-91.077C431.64,3.513,425.898,0,419.629,0H92.373    c-6.27,0-12.012,3.513-14.866,9.097c-14.502,28.367-21.855,59.01-21.855,91.077c0,104.708,80.831,191.123,183.652,199.647v178.788    h-66.783c-9.22,0-16.696,7.475-16.696,16.696S163.301,512,172.522,512h166.957c9.22,0,16.696-7.475,16.696-16.696    s-7.475-16.696-16.696-16.696h-66.783V299.82C375.533,291.296,456.348,204.868,456.348,100.174z M89.043,100.174    c0-23.335,4.664-45.752,13.881-66.783h306.154c9.215,21.031,13.879,43.447,13.879,66.783c0,7.346-0.482,14.581-1.406,21.679    c-2.668-0.878-5.28-1.948-7.824-3.22c-25.583-12.792-56.132-12.792-81.715,0c-16.234,8.115-35.616,8.115-51.85,0    c-25.583-12.792-56.132-12.792-81.715,0c-16.234,8.116-35.617,8.116-51.849,0c-17.949-8.976-37.968-11.719-57.228-8.185    C89.161,107.048,89.043,103.624,89.043,100.174z M256,267.13c-77.105,0-142.159-52.545-161.263-123.703    c12.409-2.416,25.346-0.72,36.927,5.07c25.583,12.793,56.131,12.793,81.715,0c16.234-8.115,35.616-8.115,51.85,0    c25.58,12.792,56.131,12.793,81.715,0c16.235-8.117,35.617-8.115,51.85,0c4.885,2.443,9.936,4.401,15.108,5.922    C391.334,219.932,329.079,267.13,256,267.13z" fill="#FFFFFF"/>
	</g>
</g>
<g>
	<g>
		<circle cx="306.087" cy="217.043" r="16.696" fill="#FFFFFF"/>
	</g>
</g>
<g>
	<g>
		<circle cx="239.304" cy="183.652" r="16.696" fill="#FFFFFF"/>
	</g>
</g>
<g>
</g>
<g>
</g>
<g>
</g>
<g>
</g>
<g>
</g>
<g>
</g>
<g>
</g>
<g>
</g>
<g>
</g>
<g>
</g>
<g>
</g>
<g>
</g>
<g>
</g>
<g>
</g>
<g>
</g>
</svg>
