<?xml version="1.0" encoding="iso-8859-1"?>
<!-- Generator: Adobe Illustrator 18.0.0, SVG Export Plug-In . SVG Version: 6.00 Build 0)  -->
<!DOCTYPE svg PUBLIC "-//W3C//DTD SVG 1.1//EN" "http://www.w3.org/Graphics/SVG/1.1/DTD/svg11.dtd">
<svg xmlns="http://www.w3.org/2000/svg" xmlns:xlink="http://www.w3.org/1999/xlink" version="1.1" id="Capa_1" x="0px" y="0px" viewBox="0 0 370.227 370.227" style="enable-background:new 0 0 370.227 370.227;" xml:space="preserve" width="512px" height="512px">
<g>
	<path d="M361.437,233.82c5.41-5.18,8.79-12.465,8.79-20.529c0-6.235-2.034-12.164-5.654-17.007c2.504-3.064,4.07-6.84,4.07-11.526   c0-27.52-55.905-41.918-111.13-41.918c-13.026,0-25.647,0.777-37.644,2.291c-0.736-1.978-1.729-3.632-2.834-5   c-2.591-3.208-7.031-6.392-14.352-6.299c0.026-0.211,0.059-0.42,0.082-0.632c0.803-7.553-1.385-14.966-6.156-20.871   c-3.918-4.853-9.227-8.187-15.088-9.679c0.021-3.957-1.133-7.877-4.077-11.523c-2.983-3.691-8.888-8.093-20.075-8.093   c-22.239,0-58.63,17.792-92.71,45.326c-42.955,34.706-77.392,81.04-60.097,102.448c1.974,2.441,5.273,5.244,10.413,6.341   c0.222,6.074,2.377,12.011,6.285,16.851c5.068,6.273,12.277,9.812,19.741,10.44c-1.643,7.187,0.598,12.211,3.151,15.37   c3.125,3.867,8.626,7.355,18.298,7.355c6.979,0,16.129-1.816,28.124-6.615c17.032-6.815,36.551-18.344,55.811-32.884   c-0.001,0.027-0.003,0.058-0.003,0.086c0,8.562,6.184,20.673,35.643,29.752c20.269,6.247,47.076,9.688,75.485,9.688   s55.217-3.44,75.486-9.688c29.46-9.079,35.644-21.19,35.644-29.752C368.643,243.626,367.203,238.351,361.437,233.82z    M171.65,226.638c5.921-5.436,11.466-10.936,16.556-16.409c17.539,2.098,39.774,2.54,69.308,2.54   c32.417,0,56.165-0.536,74.366-3.207c4.623-0.679,12.766-1.879,20.216-4.859c1.989,2.385,3.132,5.396,3.132,8.588   c0,6.939-6.199,13.318-13.434,13.436c-12.254,0.198-18.675,3.11-24.339,5.855c-5.02,2.433-8.985,4.354-17.798,4.354   s-12.778-1.921-17.798-4.354c-5.664-2.745-12.083-5.855-24.339-5.855c-12.257,0-18.677,3.11-24.342,5.854   c-5.02,2.433-8.986,4.355-17.801,4.355c-8.814,0-12.801-1.877-17.8-4.354C184.812,226.257,171.949,226.661,171.65,226.638z    M328.426,167.538c17.42,5.785,25.217,12.816,25.217,17.219c0,3.118-6.289,7.373-23.941,9.963   c-19.169,2.814-47.313,3.049-72.188,3.049c-18.997,0-39.937-0.142-57.311-1.465c2.849-3.601,5.466-7.156,7.806-10.634   c6.991-10.39,10.68-18.755,12.234-25.473c11.814-1.564,24.322-2.358,37.27-2.358C284.411,157.839,309.595,161.283,328.426,167.538z    M25.023,192.139c10.717-16.699,28.142-35.206,49.064-52.11c35.904-29.009,67.699-41.994,83.282-41.994   c2.38,0,6.636,0.328,8.407,2.52c1.96,2.426-0.259,9.688-12.361,22.797c-13.142,14.233-34.886,32.104-54.235,47.738   c-25.403,20.525-63.793,51.543-79.56,51.541c-2.382-0.001-3.037-0.813-3.39-1.248C13.464,217.957,15.11,207.586,25.023,192.139z    M32.93,244.574c-2.005-2.481-3.025-5.575-2.969-8.7c17.353-5.383,41.601-23.186,78.646-53.117   c25.216-20.374,43.351-35.716,55.829-49.231c3.17-3.435,8.751-9.486,12.673-16.487c3.043,0.604,5.827,2.234,7.831,4.716   c2.255,2.791,3.288,6.293,2.909,9.861c-0.379,3.568-2.124,6.775-4.915,9.03c-9.533,7.702-12.571,14.156-15.252,19.852   c-2.376,5.047-4.253,9.034-11.108,14.572c-6.854,5.538-11.145,6.535-16.579,7.798c-6.13,1.425-13.078,3.039-22.611,10.741   c-9.535,7.703-12.574,14.158-15.256,19.854c-2.376,5.048-4.253,9.035-11.107,14.574c-6.856,5.539-11.148,6.536-16.583,7.799   c-6.132,1.425-13.081,3.04-22.616,10.744c-0.001,0.001-0.003,0.002-0.004,0.004C46.054,251.231,37.584,250.332,32.93,244.574z    M85.003,266.624c-19.256,7.705-26.341,7.095-29.184,3.758c-1.047-1.228-1.489-6.215,5.419-12.127   c0.003-0.003,0.007-0.005,0.011-0.008c6.856-5.541,11.149-6.538,16.584-7.801c6.131-1.425,13.08-3.04,22.614-10.743   c9.532-7.703,12.571-14.157,15.252-19.852c2.377-5.048,4.254-9.035,11.11-14.575c6.855-5.538,11.148-6.535,16.581-7.798   c6.13-1.425,13.078-3.039,22.61-10.741c9.534-7.702,12.572-14.157,15.253-19.852c2.376-5.047,4.253-9.033,11.107-14.571   c0.006-0.005,0.012-0.011,0.018-0.016c10.875-8.729,13.762,1.034,13.788,1.143c0.726,2.975-0.762,10.032-10.605,23.856   c-4.473,6.281-9.625,13.097-15.746,19.894c-0.053,0.057-0.105,0.113-0.156,0.171c-9.527,10.558-20.996,21.347-33.707,31.618   C124.989,245.917,103.343,259.286,85.003,266.624z M328.582,263.171c-18.877,5.817-44.116,9.022-71.068,9.022   c-26.952,0-52.191-3.204-71.067-9.022c-19.823-6.11-25.337-12.771-25.061-15.418c0.463-4.445,8.568-5.932,11.85-6.027   c8.812-0.257,12.781,1.922,17.803,4.354c5.664,2.744,12.084,5.855,24.34,5.855c12.257,0,18.677-3.11,24.342-5.855   c5.02-2.433,8.986-4.354,17.801-4.354c8.813,0,12.778,1.921,17.798,4.354c5.664,2.745,12.083,5.855,24.339,5.855   c12.256,0,18.675-3.11,24.339-5.855c5.02-2.433,8.985-4.396,17.798-4.354c8.267,0.039,11.851,3.975,11.851,6.027   C353.643,250.414,348.405,257.061,328.582,263.171z" fill="#FFFFFF"/>
</g>
<g>
</g>
<g>
</g>
<g>
</g>
<g>
</g>
<g>
</g>
<g>
</g>
<g>
</g>
<g>
</g>
<g>
</g>
<g>
</g>
<g>
</g>
<g>
</g>
<g>
</g>
<g>
</g>
<g>
</g>
</svg>
