<?xml version="1.0" encoding="iso-8859-1"?>
<!-- Generator: Adobe Illustrator 19.0.0, SVG Export Plug-In . SVG Version: 6.00 Build 0)  -->
<svg xmlns="http://www.w3.org/2000/svg" xmlns:xlink="http://www.w3.org/1999/xlink" version="1.1" id="Capa_1" x="0px" y="0px" viewBox="0 0 57 57" style="enable-background:new 0 0 57 57;" xml:space="preserve" width="512px" height="512px">
<g>
	<g>
		<path d="M44.5,34.555c-0.513,0-1.022,0.043-1.523,0.128C41.828,32.449,39.503,31,36.944,31c-2.044,0-3.936,0.9-5.215,2.447    c-2.029-0.881-4.429-0.881-6.458,0C23.991,31.9,22.1,31,20.055,31c-2.56,0-4.884,1.449-6.032,3.684    c-0.501-0.085-1.011-0.128-1.523-0.128c-4.962,0-9,4.037-9,9c0,5.041,4.217,9.128,9.234,8.997C14.347,55.312,17.264,57,20.5,57    c2.143,0,4.179-0.748,5.801-2.119c1.417,0.455,2.98,0.455,4.397,0C32.321,56.252,34.357,57,36.5,57    c3.236,0,6.153-1.688,7.766-4.447c0.078,0.002,0.156,0.003,0.234,0.003c4.962,0,9-4.037,9-9S49.462,34.555,44.5,34.555z     M44.5,50.555c-0.239,0-0.477-0.012-0.709-0.036c-0.413-0.038-0.816,0.179-1,0.556C41.604,53.496,39.193,55,36.5,55    c-1.833,0-3.567-0.704-4.882-1.983c-0.19-0.186-0.442-0.283-0.697-0.283c-0.131,0-0.264,0.025-0.389,0.079    c-1.289,0.545-2.774,0.545-4.063,0c-0.37-0.158-0.799-0.077-1.086,0.204C24.067,54.296,22.333,55,20.5,55    c-2.694,0-5.104-1.504-6.291-3.925c-0.184-0.377-0.587-0.589-1-0.556c-0.233,0.024-0.47,0.036-0.71,0.036c-3.86,0-7-3.141-7-7    s3.14-7,7-7c0.628,0,1.25,0.083,1.849,0.246c0.505,0.135,1.03-0.137,1.205-0.629C16.23,34.275,18.039,33,20.055,33    c1.659,0,3.175,0.841,4.055,2.25c0.284,0.457,0.878,0.605,1.347,0.338c1.844-1.061,4.241-1.061,6.085,0    c0.469,0.269,1.063,0.12,1.347-0.338c0.88-1.409,2.396-2.25,4.055-2.25c2.016,0,3.825,1.275,4.502,3.173    c0.176,0.492,0.702,0.763,1.205,0.629c0.598-0.163,1.22-0.246,1.849-0.246c3.86,0,7,3.141,7,7S48.359,50.555,44.5,50.555z" fill="#FFFFFF"/>
		<path d="M12.24,12.729c0.688,0.042,1.324-0.189,1.83-0.694l0.293-0.293V7.69l-0.578-0.269c-0.25-0.116-1.051-0.567-1.438-1.092    c-0.065-0.089-0.17-0.253-0.144-0.36c0.041-0.171,0.342-0.497,1.054-0.852c0.282-0.143,0.499-0.178,0.643-0.106    c0.155,0.077,0.689,0.485,1.057,2.49c0.51,2.777,0.123,6.502-0.942,9.057c-1.438,3.451-1.537,7.164-0.289,10.735    c0.101,0.289,0.393,0.797,1.214,0.953c0.158,0.03,0.339,0.044,0.534,0.044c1.241,0,3.073-0.567,3.602-1.181    c0.275-0.319,0.361-0.735,0.23-1.112h0c-0.145-0.415-0.3-0.824-0.454-1.229c-0.791-2.083-1.473-3.883-0.567-6.056    c0.482-1.155,1.713-4.37,2.095-7.713H21.5v19h2v-19h2v20h2v-20h2v20h2v-20h2v19h2v-19h1.119c0.382,3.343,1.613,6.558,2.095,7.713    c0.905,2.173,0.223,3.973-0.567,6.056c-0.154,0.405-0.309,0.815-0.454,1.229h0c-0.131,0.377-0.045,0.793,0.23,1.112    c0.529,0.613,2.361,1.181,3.602,1.181c0.195,0,0.376-0.014,0.534-0.044c0.821-0.156,1.113-0.664,1.213-0.952    c1.249-3.572,1.149-7.285-0.289-10.736c-1.064-2.555-1.452-6.279-0.941-9.057c0.369-2.005,0.902-2.413,1.057-2.49    c0.143-0.074,0.359-0.037,0.644,0.106c0.711,0.356,1.012,0.682,1.053,0.852c0.026,0.107-0.079,0.272-0.144,0.359    c-0.383,0.521-1.169,0.966-1.438,1.093L42.636,7.69v4.052l0.293,0.293c0.505,0.506,1.138,0.737,1.83,0.694    c1.355-0.102,2.844-1.313,4.683-3.809c0.805-1.092,0.969-2.71,0.441-4.329c-0.666-2.037-2.208-3.614-4.126-4.218    c-2.017-0.634-3.988-0.458-5.55,0.503c-1.854,1.138-3.051,3.251-3.556,6.279C36.55,7.752,36.508,8.372,36.503,9H35.5V4.922h-2V9    h-2V2h-2v7h-2V2h-2v7h-2V4.922h-2V9h-1.004c-0.004-0.628-0.047-1.247-0.146-1.844c-0.505-3.028-1.702-5.142-3.556-6.279    c-1.563-0.959-3.535-1.137-5.55-0.503c-1.918,0.604-3.46,2.181-4.126,4.218C6.588,6.211,6.753,7.829,7.558,8.921    C9.397,11.417,10.884,12.627,12.24,12.729z M38.623,7.486c0.406-2.434,1.291-4.083,2.629-4.905    c1.434-0.879,3.061-0.564,3.905-0.299c1.535,0.482,2.465,1.83,2.824,2.931c0.324,0.991,0.266,1.957-0.15,2.523    c-1.93,2.619-2.905,2.96-3.195,2.997V8.922c0.482-0.291,1.159-0.773,1.625-1.406c0.6-0.814,0.591-1.545,0.479-2.014    c-0.204-0.847-0.912-1.578-2.104-2.174c-1.091-0.547-1.925-0.359-2.431-0.106c-1.045,0.522-1.743,1.804-2.131,3.919    c-0.583,3.17-0.156,7.265,1.062,10.188c1.218,2.924,1.339,5.941,0.359,8.974c-0.001,0-0.003,0-0.005,0    c-0.413,0-1.149-0.165-1.655-0.346c0.06-0.16,0.12-0.319,0.181-0.479c0.863-2.274,1.755-4.626,0.543-7.534    c-0.978-2.348-1.892-5.462-2.032-8.168V9h-0.014C38.517,8.473,38.543,7.96,38.623,7.486z M9.018,5.213    c0.359-1.101,1.29-2.448,2.824-2.931c0.845-0.266,2.473-0.58,3.905,0.299c1.339,0.822,2.224,2.472,2.629,4.905    c0.51,3.059-0.666,7.407-1.937,10.457c-1.212,2.908-0.32,5.26,0.543,7.534c0.06,0.159,0.121,0.318,0.181,0.479    c-0.506,0.181-1.242,0.346-1.655,0.346c-0.002,0-0.004,0-0.005,0c-0.979-3.032-0.859-6.05,0.359-8.974    c1.218-2.923,1.646-7.018,1.063-10.188c-0.389-2.115-1.086-3.397-2.132-3.919c-0.507-0.254-1.341-0.44-2.43,0.106    c-1.193,0.596-1.901,1.327-2.105,2.174c-0.113,0.469-0.122,1.199,0.478,2.015c0.467,0.633,1.143,1.114,1.626,1.405v1.811    c-0.29-0.037-1.265-0.378-3.195-2.997C8.752,7.17,8.694,6.204,9.018,5.213z" fill="#FFFFFF"/>
	</g>
</g>
<g>
</g>
<g>
</g>
<g>
</g>
<g>
</g>
<g>
</g>
<g>
</g>
<g>
</g>
<g>
</g>
<g>
</g>
<g>
</g>
<g>
</g>
<g>
</g>
<g>
</g>
<g>
</g>
<g>
</g>
</svg>
