<?xml version="1.0" encoding="iso-8859-1"?>
<!-- Generator: Adobe Illustrator 19.0.0, SVG Export Plug-In . SVG Version: 6.00 Build 0)  -->
<svg xmlns="http://www.w3.org/2000/svg" xmlns:xlink="http://www.w3.org/1999/xlink" version="1.1" id="Layer_1" x="0px" y="0px" viewBox="0 0 512 512" style="enable-background:new 0 0 512 512;" xml:space="preserve" width="512px" height="512px">
<g>
	<g>
		<path d="M455.87,127.279h-27.134V66.444h-81.758V53.737C346.978,24.107,322.871,0,293.241,0h-74.483    c-29.63,0-53.737,24.107-53.737,53.737v12.707H83.264v60.834H56.129v30.417h27.134v280.085H97L117.278,512h277.443L415,437.781    h13.737V157.696h27.134v-30.417H455.87z M195.438,53.737c0-12.858,10.461-23.32,23.32-23.32h74.482    c12.858,0,23.32,10.461,23.32,23.32v12.707H195.438V53.737z M371.499,481.583H140.5l-11.968-43.802h254.934L371.499,481.583z     M398.319,407.364L398.319,407.364H113.681V157.696h284.638V407.364z M398.319,127.279H113.681V96.861h284.638V127.279z" fill="#FFFFFF"/>
	</g>
</g>
<g>
</g>
<g>
</g>
<g>
</g>
<g>
</g>
<g>
</g>
<g>
</g>
<g>
</g>
<g>
</g>
<g>
</g>
<g>
</g>
<g>
</g>
<g>
</g>
<g>
</g>
<g>
</g>
<g>
</g>
</svg>
