<?xml version="1.0" encoding="iso-8859-1"?>
<!-- Generator: Adobe Illustrator 19.0.0, SVG Export Plug-In . SVG Version: 6.00 Build 0)  -->
<svg xmlns="http://www.w3.org/2000/svg" xmlns:xlink="http://www.w3.org/1999/xlink" version="1.1" id="Layer_1" x="0px" y="0px" viewBox="0 0 512 512" style="enable-background:new 0 0 512 512;" xml:space="preserve" width="512px" height="512px">
<g transform="translate(1 1)">
	<g>
		<g>
			<path d="M332.653,393.24C365.933,301.933,383,207.213,383,110.787v-0.853c0-5.12-3.413-8.533-8.533-8.533h-9.441     c-3.551-16.741-17.24-30.351-34.079-33.28c-3.413-17.067-17.067-30.72-34.133-34.133C293.4,14.36,275.48-1,255-1     s-38.4,15.36-41.813,34.987c-17.067,3.413-30.72,17.067-34.133,34.133c-16.839,2.929-30.528,16.539-34.079,33.28h-9.441     c-5.12,0-8.533,3.413-8.533,8.533v0.853c0,96.427,17.067,192,50.347,282.453l9.387,25.6v14.507c0,12.8-7.68,25.6-18.773,32.427     l-23.04,12.8c-6.827,3.413-10.24,11.947-8.533,19.627c1.707,7.68,8.533,12.8,17.067,12.8h203.093c8.533,0,15.36-5.12,17.067-12.8     c1.707-7.68-1.707-15.36-8.533-19.627l-23.04-12.8c-11.093-6.827-18.773-18.773-18.773-32.427V418.84L332.653,393.24z      M186.733,84.333c5.12,0,8.533-3.413,8.533-8.533c0-14.507,11.093-25.6,26.453-25.6c5.12,0,8.533-3.413,8.533-8.533     c0-14.507,11.093-25.6,25.6-25.6c14.507,0,25.6,11.093,25.6,25.6c0,5.12,3.413,8.533,8.533,8.533c14.507,0,25.6,11.093,25.6,25.6     c0,5.12,3.413,8.533,8.533,8.533c11.093,0,20.48,6.827,23.893,17.067H162.84C166.253,91.16,175.64,84.333,186.733,84.333z      M332.653,480.28l23.04,13.653H152.6v-0.853l23.04-12.8c17.92-9.387,28.16-27.307,28.16-46.933v-16.213c0-0.853,0-1.707,0-2.56     l-10.24-27.307c-32.427-86.187-48.64-176.64-49.493-268.8h8.533h204.8h8.533c-0.853,92.16-17.067,182.613-50.347,268.8     l-10.24,27.307c-0.853,0.853-0.853,1.707-0.853,2.56v16.213C304.493,452.973,315.587,470.893,332.653,480.28z" fill="#FFFFFF"/>
			<path d="M345.453,138.093c-1.707-1.707-3.413-2.56-5.973-2.56H170.52c-2.56,0-5.12,0.853-5.973,2.56     c-1.707,1.707-2.56,3.413-2.56,5.973c3.413,81.067,19.627,161.28,47.787,237.227l11.093,31.573v20.48v0.853     c0,1.707,0.853,4.267,2.56,5.973c1.707,1.707,3.413,2.56,5.973,2.56h51.2c2.56,0,4.267-0.853,5.973-2.56     c1.707-1.707,2.56-3.413,2.56-5.973v-21.333l11.093-31.573c28.16-76.8,44.373-156.16,47.787-237.227     C348.013,142.36,347.16,139.8,345.453,138.093z M284.867,376.173L272.92,408.6c-0.853,0.853-0.853,1.707-0.853,2.56v14.507     h-34.133V411.16c0-0.853-0.853-1.707-0.853-2.56l-11.947-32.427c-26.453-71.68-41.813-146.773-46.08-222.72h151.893     C326.68,229.4,311.32,304.493,284.867,376.173z" fill="#FFFFFF"/>
		</g>
	</g>
</g>
<g>
</g>
<g>
</g>
<g>
</g>
<g>
</g>
<g>
</g>
<g>
</g>
<g>
</g>
<g>
</g>
<g>
</g>
<g>
</g>
<g>
</g>
<g>
</g>
<g>
</g>
<g>
</g>
<g>
</g>
</svg>
